HIERARCHY
ROOT Hips
{
	OFFSET 0.0000 0.0000 0.0000
	CHANNELS 6 Xposition Yposition Zposition Zrotation Xrotation Yrotation
	JOINT Ab
	{
		OFFSET -0.0000 8.0846 -0.0000
		CHANNELS 3 Zrotation Xrotation Yrotation
		JOINT Chest
		{
			OFFSET -0.0000 25.0068 -0.0000
			CHANNELS 3 Zrotation Xrotation Yrotation
			JOINT Neck
			{
				OFFSET -0.0000 25.0068 0.0000
				CHANNELS 3 Zrotation Xrotation Yrotation
				JOINT Head
				{
					OFFSET -0.0000 10.7556 0.0000
					CHANNELS 3 Zrotation Xrotation Yrotation
					End Site
					{
						OFFSET -0.0000 16.6222 0.0000
					}
				}
			}
			JOINT LeftCollar
			{
				OFFSET -0.0000 25.0068 0.0000
				CHANNELS 3 Zrotation Xrotation Yrotation
				JOINT LeftShoulder
				{
					OFFSET 19.5556 -0.0000 0.0000
					CHANNELS 3 Zrotation Xrotation Yrotation
					JOINT LeftElbow
					{
						OFFSET 27.1828 0.0000 0.0000
						CHANNELS 3 Zrotation Xrotation Yrotation
						JOINT LeftWrist
						{
							OFFSET 23.3157 0.0000 0.0000
							CHANNELS 3 Zrotation Xrotation Yrotation
							End Site
							{
								OFFSET 0.0000 -14.6667 0.0000
							}
						}
					}
				}
			}
			JOINT RightCollar
			{
				OFFSET -0.0000 25.0068 0.0000
				CHANNELS 3 Zrotation Xrotation Yrotation
				JOINT RightShoulder
				{
					OFFSET -19.5556 0.0000 0.0000
					CHANNELS 3 Zrotation Xrotation Yrotation
					JOINT RightElbow
					{
						OFFSET -27.1828 0.0000 0.0000
						CHANNELS 3 Zrotation Xrotation Yrotation
						JOINT RightWrist
						{
							OFFSET -23.3157 0.0000 0.0000
							CHANNELS 3 Zrotation Xrotation Yrotation
							End Site
							{
								OFFSET -0.0000 -14.6667 0.0000
							}
						}
					}
				}
			}
		}
	}
	JOINT LeftHip
	{
		OFFSET 11.7333 0.0000 0.0000
		CHANNELS 3 Zrotation Xrotation Yrotation
		JOINT LeftKnee
		{
			OFFSET -0.0000 -40.8688 0.0000
			CHANNELS 3 Zrotation Xrotation Yrotation
			JOINT LeftAnkle
			{
				OFFSET -0.0000 -44.4337 0.0000
				CHANNELS 3 Zrotation Xrotation Yrotation
				End Site
				{
					OFFSET -0.0000 -4.8889 16.6222
				}
			}
		}
	}
	JOINT RightHip
	{
		OFFSET -11.7333 0.0000 0.0000
		CHANNELS 3 Zrotation Xrotation Yrotation
		JOINT RightKnee
		{
			OFFSET -0.0000 -40.8688 0.0000
			CHANNELS 3 Zrotation Xrotation Yrotation
			JOINT RightAnkle
			{
				OFFSET -0.0000 -44.4337 0.0000
				CHANNELS 3 Zrotation Xrotation Yrotation
				End Site
				{
					OFFSET -0.0000 -4.8889 16.6222
				}
			}
		}
	}
}
MOTION
Frames: 21
Frame Time: 0.010000
-3.2461 88.8178 191.6505 2.6056 358.4210 174.3178 2.2750 358.1878 358.2946 358.6749 12.5988 358.4045 3.1400 341.1575 2.2779 1.1772 5.6148 1.6954 339.4298 358.5095 8.2396 300.9770 30.6450 353.8131 17.1193 354.1247 322.3147 80.0928 1.1133 337.7875 22.1057 359.1130 355.4963 59.8843 40.4427 7.3984 338.4923 354.1212 30.3713 278.1125 352.4275 23.9738 2.2994 357.4288 359.1687 359.0618 10.4712 359.4798 355.1692 351.1300 21.5859 2.8094 351.9205 359.6480 359.3019 17.5041 9.7200 355.1509 345.8192 338.0678 
-3.2563 88.8180 191.6334 2.6033 358.4593 174.3056 2.2817 358.2138 358.2989 358.6631 12.6088 358.4109 3.1091 341.1307 2.2699 1.2166 5.6901 1.6916 339.4342 358.4818 8.2406 300.9689 30.6583 353.8303 17.1766 354.1056 322.2413 80.0321 1.0973 337.7139 22.1070 359.1328 355.5089 59.8874 40.4070 7.3965 338.5557 354.1185 30.3783 278.0477 352.4976 24.0004 2.2794 357.4962 359.1504 359.0725 10.4412 359.5158 355.2154 351.1479 21.5708 2.7906 351.9755 359.6856 359.3223 17.5016 9.7085 355.1498 345.8034 338.0401 
-3.2632 88.8180 191.6337 2.5996 358.4442 174.3072 2.2857 358.2087 358.2916 358.6603 12.5953 358.4027 3.0626 341.1080 2.2404 1.2529 5.7747 1.6657 339.4285 358.5010 8.3094 301.0504 30.9771 353.7320 17.3048 354.0571 322.3799 79.9941 1.0013 337.8622 22.1101 359.1127 355.4972 59.8618 40.4580 7.4204 338.4882 354.1250 30.3860 278.1246 352.4811 23.9733 2.2807 357.4732 359.1595 359.0553 10.4561 359.4711 355.2259 351.1281 21.6337 2.7895 351.9534 359.6473 359.2944 17.5101 9.7557 355.1783 345.8109 338.0467 
-3.2725 88.8176 191.6284 2.6052 358.4533 174.2968 2.3092 358.2218 358.2856 358.6424 12.5981 358.3993 3.0158 341.0787 2.2181 1.2922 5.8327 1.6487 339.4253 358.5005 8.3567 301.0894 31.0965 353.6661 17.3810 354.0486 322.3798 79.9956 1.0110 337.9084 22.1125 359.1323 355.5145 59.8676 40.4363 7.4181 338.5187 354.1103 30.3736 278.0835 352.4709 23.9566 2.2717 357.4908 359.1730 359.0660 10.4539 359.4612 355.2327 351.1252 21.6351 2.7874 351.9662 359.6859 359.3155 17.5046 9.6890 355.1544 345.8123 338.0551 
-3.2809 88.8176 191.6286 2.6068 358.4487 174.2988 2.3135 358.2445 358.2862 358.6486 12.5571 358.4016 2.9010 341.0665 2.1601 1.4080 5.9092 1.6004 339.4096 358.4699 8.3640 301.1105 31.2091 353.6836 17.4606 354.0229 322.3487 79.9669 1.0630 337.9835 22.1165 359.1320 355.5118 59.8516 40.4449 7.4182 338.5251 354.0816 30.3878 278.0490 352.4771 23.9873 2.2709 357.4919 359.1837 359.0662 10.4385 359.5013 355.2246 351.1382 21.5832 2.7837 351.9568 359.7006 359.3178 17.5135 9.7078 355.1599 345.8078 338.0271 
-3.2913 88.8176 191.6215 2.6083 358.4635 174.2992 2.3229 358.2600 358.2905 358.6395 12.5582 358.4049 2.8662 341.0322 2.1292 1.4233 5.9878 1.5724 339.4018 358.4971 8.3900 301.1750 31.3592 353.6199 17.4832 354.0488 322.4684 80.0253 0.8885 338.0464 22.1139 359.1124 355.5129 59.8863 40.4465 7.3881 338.4722 354.0737 30.4216 278.0861 352.4968 23.9659 2.2601 357.5171 359.1714 359.0724 10.4257 359.4634 355.2525 351.1528 21.6234 2.7765 351.9767 359.6719 359.3085 17.5102 9.7092 355.1915 345.7961 338.0602 
-3.2985 88.8194 191.6273 2.6076 358.4387 174.3102 2.3249 358.2474 358.2832 358.6504 12.5555 358.3968 2.7759 340.9952 2.0760 1.4986 6.0541 1.5286 339.4039 358.4574 8.3941 301.1666 31.4496 353.6122 17.5859 353.9703 322.4073 80.0345 0.9469 338.1345 22.1148 359.1322 355.4991 59.8543 40.4212 7.4296 338.5155 354.0990 30.3803 278.0890 352.4192 23.9821 2.2567 357.4725 359.1577 359.0713 10.4499 359.5021 355.1992 351.1287 21.5911 2.7735 351.9454 359.6872 359.3150 17.5213 9.6636 355.1946 345.7987 338.0784 
-3.3059 88.8197 191.6200 2.6027 358.4518 174.3035 2.3277 358.2523 358.2833 358.6388 12.5666 358.3987 2.7629 340.9877 2.0775 1.5498 6.1009 1.5336 339.4081 358.4980 8.3773 301.1727 31.3507 353.6011 17.4289 354.0471 322.4540 80.1717 0.8645 338.0354 22.1077 359.1047 355.5330 59.9336 40.4357 7.3581 338.3940 354.0605 30.4317 278.1268 352.4893 23.9704 2.2474 357.5131 359.1888 359.0702 10.4094 359.4661 355.2439 351.1576 21.6186 2.7638 351.9638 359.6883 359.3116 17.5102 9.7163 355.1749 345.8094 338.0332 
-3.3140 88.8181 191.6153 2.6066 358.4564 174.3060 2.3291 358.2548 358.2874 358.6474 12.5793 358.4017 2.7182 340.9369 2.0418 1.5523 6.1893 1.4985 339.4034 358.4773 8.3669 301.1795 31.4146 353.5950 17.5246 354.0093 322.4239 80.1708 0.8344 338.0854 22.1052 359.1392 355.5101 59.8710 40.4243 7.4343 338.5049 354.0855 30.3818 278.0899 352.4672 24.0181 2.2441 357.5187 359.1852 359.0765 10.4128 359.4666 355.2118 351.1383 21.5887 2.7616 351.9731 359.6817 359.3130 17.5095 9.6823 355.1623 345.7920 338.0470 
-3.3221 88.8189 191.6136 2.6076 358.4568 174.3051 2.3476 358.2626 358.2788 358.6243 12.5730 358.3943 2.6919 340.9252 2.0307 1.6087 6.2350 1.4877 339.4101 358.4383 8.4226 301.2117 31.6394 353.5437 17.6693 353.9545 322.5042 80.1151 0.7868 338.2018 22.1110 359.1044 355.5143 59.8905 40.4599 7.4098 338.3896 354.0579 30.4229 278.1734 352.4577 23.9205 2.2406 357.5197 359.1551 359.0629 10.4112 359.5256 355.2114 351.1436 21.5808 2.7589 351.9832 359.6885 359.3053 17.4937 9.6634 355.2022 345.7916 338.0879 
-3.3290 88.8196 191.6117 2.6050 358.4507 174.2965 2.3416 358.2555 358.2829 358.6315 12.5787 358.3996 2.6345 340.9140 1.9966 1.6645 6.2846 1.4612 339.4139 358.4788 8.4127 301.2137 31.5652 353.5267 17.5564 354.0406 322.5475 80.2707 0.7392 338.1629 22.1112 359.1044 355.5252 59.8699 40.4322 7.4054 338.4807 354.0787 30.4362 278.1010 352.5332 23.9488 2.2356 357.5186 359.1920 359.0704 10.4053 359.5036 355.2176 351.1450 21.5681 2.7532 351.9696 359.7029 359.3146 17.5103 9.6849 355.1869 345.7948 338.0406 
-3.3373 88.8201 191.6134 2.6054 358.4477 174.3063 2.3487 358.2620 358.2773 358.6247 12.5779 358.3936 2.5823 340.8597 1.9685 1.7683 6.3898 1.4330 339.4266 358.4607 8.4152 301.2086 31.6516 353.4940 17.6622 353.9953 322.5785 80.2619 0.6739 338.1959 22.1216 359.1316 355.5062 59.8194 40.4501 7.4643 338.4916 354.1175 30.4065 278.0998 352.4671 23.9206 2.2258 357.5028 359.1718 359.0774 10.4227 359.5038 355.2400 351.1523 21.5748 2.7426 351.9714 359.6977 359.3186 17.5003 9.6981 355.7582 345.4318 337.8228 
-3.3463 88.8208 191.6102 2.5973 358.4460 174.3034 2.3327 358.2462 358.2815 358.6431 12.6073 358.3948 2.5268 340.8427 1.9345 1.8135 6.4319 1.4039 339.4490 358.4640 8.3246 301.0921 31.2631 353.5865 17.4434 354.0873 322.4726 80.3505 0.7124 337.8938 22.1072 359.1129 355.5321 59.8572 40.4267 7.4339 338.4336 354.0324 30.4442 278.1478 352.5166 23.9436 2.2150 357.5165 359.1639 359.0687 10.3990 359.5181 355.2626 351.1606 21.5869 2.7360 351.9576 359.6468 359.2876 17.5210 9.7326 355.2310 345.7753 338.0545 
-3.3542 88.8228 191.6064 2.6016 358.4682 174.3085 2.3399 358.2760 358.2791 358.6360 12.6045 358.3960 2.5268 340.8427 1.9345 1.8135 6.4319 1.4039 339.4588 358.4854 8.2896 301.0784 31.1611 353.5725 17.3379 354.1121 322.5166 80.3930 0.6547 337.7410 22.1091 359.1128 355.5265 59.8692 40.4400 7.4223 338.4264 354.0511 30.4204 278.1686 352.4930 23.9697 2.2113 357.5480 359.1639 359.0698 10.3873 359.5091 355.2164 351.1549 21.5768 2.7254 351.9958 359.6591 359.3104 17.5010 9.6978 355.1741 345.8042 338.0624 
-3.3597 88.8230 191.6110 2.6049 358.4487 174.3138 2.3427 358.2633 358.2758 358.6441 12.6087 358.3888 2.5268 340.8427 1.9345 1.8135 6.4319 1.4039 339.4603 358.5203 8.3119 301.1097 31.2437 353.4928 17.3587 354.0530 322.5474 80.3499 0.6958 337.7861 22.1020 359.1133 355.5338 59.8784 40.3891 7.4172 338.4293 354.0852 30.4418 278.1798 352.5062 23.9532 2.2085 357.5081 359.1622 359.0761 10.4141 359.5538 355.2233 351.1604 21.5324 2.7358 351.9633 359.6516 359.2949 17.5105 9.6939 355.2171 345.7839 338.0683 
-3.3652 88.8234 191.6114 2.6060 358.4519 174.3112 2.3441 358.2795 358.2776 358.6420 12.5948 358.3940 2.5268 340.8427 1.9345 1.8135 6.4319 1.4039 339.4804 358.4832 8.2986 301.0637 31.1685 353.5083 17.3792 354.0623 322.4858 80.3427 0.6914 337.7843 22.1048 359.1131 355.5246 59.8595 40.4120 7.4349 338.4301 354.0857 30.4128 278.1512 352.4488 23.9345 2.2045 357.5147 359.1955 359.0908 10.4050 359.5288 355.1912 351.1504 21.5138 2.7337 351.9640 359.6726 359.3006 17.5159 9.6455 355.2097 345.7940 338.0926 
-3.3723 88.8250 191.6121 2.6072 358.4470 174.3162 2.3488 358.2782 358.2744 358.6367 12.5944 358.3899 2.5268 340.8427 1.9345 1.8135 6.4319 1.4039 339.4821 358.4835 8.3164 301.0910 31.3034 353.4814 17.4188 354.0674 322.5630 80.3366 0.6610 337.8579 22.1003 359.1333 355.5318 59.8502 40.3809 7.4468 338.4834 354.0844 30.4154 278.1630 352.5132 23.9534 2.2031 357.5041 359.1872 359.0748 10.4177 359.5244 355.2252 351.1592 21.5467 2.7339 351.9540 359.6397 359.2786 17.5251 9.7142 355.2160 345.7846 338.0715 
-3.3808 88.8264 191.6097 2.6028 358.4573 174.3082 2.3434 358.2837 358.2805 358.6397 12.6129 358.3957 2.5268 340.8427 1.9345 1.8135 6.4319 1.4039 339.4777 358.5175 8.3369 301.1239 31.3216 353.4142 17.3624 354.0671 322.6203 80.3875 0.5878 337.7983 22.0847 359.1064 355.5455 59.8961 40.3798 7.4132 338.3863 354.0601 30.4339 278.2440 352.4986 23.8862 2.1886 357.5230 359.1680 359.0837 10.4042 359.5107 355.2330 351.1548 21.5699 2.7230 351.9684 359.6512 359.2831 17.5175 9.6956 355.2426 345.7873 338.0896 
-3.3869 88.8269 191.6120 2.6029 358.4427 174.3000 2.3568 358.2769 358.2789 358.6255 12.6063 358.3962 2.5268 340.8427 1.9345 1.8135 6.4319 1.4039 339.4823 358.4982 8.3462 301.1411 31.4343 353.4014 17.4959 354.0267 322.6011 80.2937 0.5954 337.9297 22.0881 359.1406 355.5492 59.8857 40.3430 7.4219 338.4764 354.0898 30.4140 278.1988 352.5430 23.8985 2.1909 357.5051 359.1694 359.0787 10.4083 359.5259 355.1341 351.1400 21.5410 2.7212 351.9454 359.6652 359.2860 17.5274 9.7114 355.2302 345.7816 338.0558 
-3.3938 88.8268 191.6091 2.6037 358.4569 174.2923 2.3482 358.2864 358.2908 358.6354 12.6254 358.4081 2.5268 340.8427 1.9345 1.8135 6.4319 1.4039 339.4862 358.4705 8.3509 301.1353 31.4644 353.4043 17.5353 354.0398 322.6088 80.2483 0.5685 337.9204 22.0645 359.1080 355.5499 59.9098 40.3914 7.4182 338.3807 354.0569 30.4187 278.2597 352.5196 23.8711 2.1854 357.5258 359.1782 359.0735 10.4038 359.5280 355.2530 351.1590 21.5705 2.7199 351.9655 359.6638 359.2806 17.5163 9.6988 355.2366 345.7732 338.0674 
-3.4014 88.8278 191.6124 2.6047 358.4521 174.2933 2.3691 358.2936 358.2874 358.6091 12.6203 358.4045 2.5268 340.8427 1.9345 1.8135 6.4319 1.4039 339.4912 358.4995 8.3538 301.1602 31.4258 353.3707 17.4203 354.0774 322.6324 80.3468 0.5469 337.8944 22.0779 359.1350 355.5424 59.8927 40.3748 7.4310 338.4506 354.0977 30.4051 278.2389 352.5938 23.8944 2.1871 357.5130 359.1543 359.0606 10.4148 359.5390 355.2552 351.1454 21.5794 2.7128 351.9518 359.6761 359.2905 17.5332 9.7147 355.2376 345.7896 338.0476 
